<?xml version="1.0" encoding="UTF-8" standalone="no"?>
<!-- Created with Inkscape (http://www.inkscape.org/) -->

<svg
   width="190.46973mm"
   height="170.8494mm"
   viewBox="0 0 190.46973 170.8494"
   version="1.1"
   id="svg1"
   xml:space="preserve"
   inkscape:version="1.4.2 (f4327f4, 2025-05-13)"
   sodipodi:docname="df_white.svg"
   xmlns:inkscape="http://www.inkscape.org/namespaces/inkscape"
   xmlns:sodipodi="http://sodipodi.sourceforge.net/DTD/sodipodi-0.dtd"
   xmlns="http://www.w3.org/2000/svg"
   xmlns:svg="http://www.w3.org/2000/svg"><sodipodi:namedview
     id="namedview1"
     pagecolor="#000000"
     bordercolor="#000000"
     borderopacity="1"
     inkscape:showpageshadow="2"
     inkscape:pageopacity="0.0"
     inkscape:pagecheckerboard="0"
     inkscape:deskcolor="#ffffff"
     inkscape:document-units="mm"
     inkscape:zoom="0.71891835"
     inkscape:cx="427.7259"
     inkscape:cy="619.68094"
     inkscape:window-width="1920"
     inkscape:window-height="1009"
     inkscape:window-x="-8"
     inkscape:window-y="1477"
     inkscape:window-maximized="1"
     inkscape:current-layer="layer1"
     inkscape:lockguides="false"
     showgrid="true"><sodipodi:guide
       position="0,170.8494"
       orientation="0,719.88558"
       id="guide1"
       inkscape:locked="false" /><sodipodi:guide
       position="190.46973,170.8494"
       orientation="645.73,0"
       id="guide2"
       inkscape:locked="false" /><sodipodi:guide
       position="190.46973,0"
       orientation="0,-719.88558"
       id="guide3"
       inkscape:locked="false" /><sodipodi:guide
       position="0,0"
       orientation="-645.73,0"
       id="guide4"
       inkscape:locked="false" /><sodipodi:guide
       position="0,170.8494"
       orientation="0,719.88558"
       id="guide5"
       inkscape:locked="false" /><sodipodi:guide
       position="190.46973,170.8494"
       orientation="645.73,0"
       id="guide6"
       inkscape:locked="false" /><sodipodi:guide
       position="190.46973,0"
       orientation="0,-719.88558"
       id="guide7"
       inkscape:locked="false" /><sodipodi:guide
       position="0,0"
       orientation="-645.73,0"
       id="guide8"
       inkscape:locked="false" /><inkscape:grid
       id="grid8"
       units="mm"
       originx="0"
       originy="0"
       spacingx="0.99999996"
       spacingy="1.0000001"
       empcolor="#0099e5"
       empopacity="0.30196078"
       color="#0099e5"
       opacity="0.14901961"
       empspacing="5"
       enabled="true"
       visible="true" /><inkscape:grid
       type="axonomgrid"
       id="grid9"
       units="mm"
       originx="0"
       originy="0"
       spacingx="0.99999996"
       spacingy="1.0000001"
       empcolor="#0099e5"
       empopacity="0.30196078"
       color="#0099e5"
       opacity="0.14901961"
       empspacing="5"
       dotted="false"
       gridanglex="30"
       gridanglez="30"
       enabled="true"
       visible="true" /><inkscape:grid
       type="modular"
       id="grid10"
       units="mm"
       originx="0"
       originy="0"
       spacingx="39.999999"
       spacingy="40.000002"
       empcolor="#0047cb"
       empopacity="0.30196078"
       color="#0099e5"
       opacity="0.14901961"
       empspacing="0"
       marginx="0"
       marginy="0"
       gapx="9.9999996"
       gapy="10.000001"
       enabled="true"
       visible="true" /></sodipodi:namedview><defs
     id="defs1" /><g
     inkscape:label="Capa 1"
     inkscape:groupmode="layer"
     id="layer1"
     style="display:inline"
     transform="translate(-12.13348,-23.887431)"><path
       style="display:inline;fill:#ffffff;fill-opacity:1;stroke-width:0.264583"
       d="m 12.13348,23.887431 c 7.30309,0.046 7.291589,0.0575 7.291589,0.0575 l -0.023,163.531719 48.38441,0.023 0.02299,7.21108 H 12.156482 Z"
       id="path5"
       inkscape:label="LL" /><path
       style="display:inline;fill:#ffffff;fill-opacity:1;stroke-width:0.264583"
       d="m 158.39004,151.28386 10.07482,-0.046 0.092,3.81831 1.38011,-1.84015 2.25419,-1.56413 1.15009,-0.46003 0.96608,-0.41404 1.74814,-0.13801 h 1.56412 l 1.79415,0.64405 0.046,9.10874 -0.87407,-0.50604 -0.92007,-0.64405 -1.97816,-0.41404 -1.51812,0.18402 -1.74814,0.50604 -0.73607,0.55204 -0.32202,0.32203 -0.87407,0.64405 -0.69006,1.01208 -0.64405,1.33411 -0.41403,1.2421 -0.23002,1.1961 0.046,15.45725 -10.25883,-0.046 z"
       id="path13"
       inkscape:label="R" /><g
       id="g12"
       transform="translate(45.979844,-47.406211)"
       style="display:inline;fill:#ffffff;fill-opacity:1"
       inkscape:label="O_2"><path
         id="path11"
         style="fill:#ffffff;fill-opacity:1;stroke-width:0.264583"
         d="m 86.788932,198.04 -3.383256,0.58549 -4.16357,1.95182 -2.472201,1.75648 -2.537313,2.66754 -1.496549,2.86236 -0.715719,1.88671 -0.455269,2.66753 0.06511,1.75649 0.19482,2.08204 0.911056,3.51296 1.170988,2.21227 1.821594,2.27686 1.756999,1.62678 2.797245,1.49603 1.821594,0.97617 4.358907,0.78031 3.448369,0.26045 3.708301,-0.6506 4.814176,-1.69137 4.358906,-3.83853 1.56166,-2.92799 1.30122,-3.31762 0.32504,-3.44837 -0.32504,-2.60243 -1.17099,-3.51296 -2.08204,-3.57808 -2.27687,-1.8867 -1.626774,-1.30122 -3.122806,-1.43143 -2.797246,-0.78083 -2.667537,-0.39016 z m 1.496033,7.93698 h 1.431437 l 1.366325,0.32556 0.845943,0.32505 1.365808,0.97617 1.49655,1.8867 0.845943,2.53732 0.06511,2.73213 -0.195337,1.04128 -0.520382,1.88671 -0.976167,1.75648 -1.886707,1.49603 -2.276864,0.71572 -2.992582,-0.25993 -1.626774,-0.65061 -1.756482,-1.17099 -0.455269,-0.84594 -0.585494,-1.2361 -0.520899,-1.56166 -0.129707,-2.73214 0.585494,-2.99309 1.2361,-1.95131 1.431437,-1.10639 1.43092,-0.91054 z" /></g><g
       id="g10"
       style="display:inline;fill:#ffffff;fill-opacity:1"
       inkscape:label="O_1"
       transform="translate(7.1298328,-47.406211)"><path
         id="path10"
         style="fill:#ffffff;fill-opacity:1;stroke-width:0.264583"
         d="m 86.788604,198.04 -3.38274,0.58549 -4.164086,1.95182 -2.472201,1.75648 -2.537313,2.66754 -1.496033,2.86236 -0.715718,1.88671 -0.455269,2.66753 0.06459,1.75649 0.195337,2.08204 0.911055,3.51296 1.170988,2.21227 1.821595,2.27686 1.756482,1.62678 2.797762,1.49603 1.821594,0.97617 4.358907,0.78031 3.447851,0.26045 3.708818,-0.6506 4.814176,-1.69137 4.358911,-3.83853 1.56166,-2.92799 1.30122,-3.31762 0.32504,-3.44837 -0.32504,-2.60243 -1.17151,-3.51296 -2.08153,-3.57808 -2.27738,-1.8867 -1.626258,-1.30122 -3.122807,-1.43143 -2.797762,-0.78083 L 89.91141,198.04 Z m 1.496549,7.93698 h 1.431437 l 1.366325,0.32556 0.845427,0.32505 1.366325,0.97617 1.496549,1.8867 0.845426,2.53732 0.06511,2.73213 -0.19482,1.04128 -0.520899,1.88671 -0.975651,1.75648 -1.886706,1.49603 -2.276864,0.71572 -2.993099,-0.25993 -1.626257,-0.65061 -1.756482,-1.17099 -0.455786,-0.84594 -0.585494,-1.2361 -0.520382,-1.56166 -0.130225,-2.73214 0.585494,-2.99309 1.236101,-1.95131 1.431437,-1.10639 1.431437,-0.91054 z" /></g><path
       style="display:inline;fill:#ffffff;fill-opacity:1;stroke-width:0.264583"
       d="m 62.265284,130.39243 9.959805,-0.0288 v 50.90312 l -10.04031,-0.0345 z"
       id="path8"
       inkscape:label="L" /><path
       style="display:inline;fill:#ffffff;fill-opacity:1;stroke-width:0.264583"
       d="m 56.813843,130.28317 -9.200742,0.092 c 0,0 -0.299024,0.069 -0.713057,0.16102 -0.414034,0.092 -1.449118,0.43703 -1.449118,0.43703 l -0.552045,0.23002 -0.621049,0.29903 -0.782063,0.52904 -0.73606,0.55204 -0.552046,0.66706 -0.36803,0.32202 -0.345027,0.46004 -0.437036,0.75906 -0.414033,0.85107 -0.299024,0.89707 -0.230019,0.66706 -0.06901,0.59804 -0.11501,0.55205 -0.046,0.59805 -0.138012,0.87407 -0.046,11.45492 -4.232341,0.023 -0.046,7.79763 h 4.255344 l -0.02299,22.12778 h 10.235827 l -0.02299,-22.12778 7.015567,0.023 -0.046,-7.84364 -7.015567,0.023 0.115009,-10.74187 0.230018,-0.98908 0.253021,-0.41403 0.184015,-0.27603 0.253022,-0.18401 0.414033,-0.25302 0.483039,-0.18402 5.175417,-0.023 z"
       id="path7"
       inkscape:label="F" /><path
       style="fill:#ffffff;fill-opacity:1;stroke-width:0.264583"
       d="m 169.41065,110.79542 c -0.16265,-1.26866 -0.68312,-2.37466 -0.68312,-2.37466 l -0.65059,-0.84577 -0.8783,-0.61806 -1.20359,-0.553 -0.97589,-0.29277 -1.33371,-0.0325 -1.85418,0.0976 -1.2036,0.65059 -0.87829,0.58553 -0.74818,0.8783 -0.52048,0.95962 -0.44728,1.10601 -0.43101,1.35811 c 0,0 -0.13825,2.31773 -0.11386,2.36652 0.0244,0.0488 0.0895,1.76473 0.0895,1.76473 l 0.3009,1.32558 0.26837,0.8295 0.42288,0.8539 0.78071,1.04095 0.77258,0.76444 0.87016,0.48794 0.95962,0.3497 0.8539,0.14638 1.4557,0.0244 0.92709,-0.11385 0.87017,-0.15452 0.88643,-0.36595 0.78071,-0.45542 0.89456,-0.87829 0.61806,-1.03282 0.20331,-0.66685 0.0325,-0.35783 9.80766,0.008 -0.21145,1.30118 -0.35782,1.21172 -0.76445,1.62648 -1.22799,1.91924 -1.82978,1.87045 -1.67527,1.22799 -1.58582,0.8539 -1.65087,0.65059 -1.80539,0.54487 -1.56955,0.3497 -1.82979,0.18704 -1.63461,0.0569 -1.76473,-0.0407 -1.46383,-0.18705 -1.81352,-0.34156 -1.61834,-0.54487 -2.01683,-0.91083 -1.34998,-0.75631 -2.22014,-1.86231 -1.4801,-1.74033 -1.28491,-2.22828 -1.07348,-2.89513 -0.39035,-2.42345 -0.13825,-2.74874 0.28463,-1.96804 0.76445,-2.57797 1.34184,-2.78127 1.85418,-2.334 2.0087,-1.77286 2.2608,-1.406897 3.17977,-1.211714 2.06562,-0.439147 0.65873,-0.0569 1.22799,-0.0569 2.03309,0.0325 1.01655,-0.0325 1.05721,0.12199 2.01683,0.439147 1.4313,0.365947 1.14667,0.471677 1.28492,0.577397 1.09787,0.5774 0.95962,0.61806 0.89456,0.67499 1.04908,1.08974 1.18733,1.4801 1.00841,1.74032 0.5774,1.23613 0.44728,1.92737 0.11386,1.29305 z"
       id="path24"
       inkscape:label="C" /><g
       id="g24"
       inkscape:label="I"
       style="display:inline;fill:#ffffff;fill-opacity:1"
       transform="translate(8.0966542,-49.28215)"><path
         style="fill:#ffffff;fill-opacity:1;stroke-width:0.264583"
         d="m 121.69301,141.34085 1.18733,1.13854 0.99215,0.60179 0.95962,0.40662 0.63433,0.16265 0.74818,0.0651 0.45541,0.0488 0.69938,-0.0651 1.02469,-0.17891 0.71565,-0.37409 0.79697,-0.32529 0.58553,-0.48795 0.553,-0.65059 0.76445,-0.94335 0.45541,-0.94336 0.11385,-0.63433 0.13012,-0.69938 0.0488,-1.12227 -0.13012,-0.66686 -0.16265,-0.78071 -0.22771,-0.63432 -0.30903,-0.40662 -0.42288,-0.66686 -0.58553,-0.63432 -0.48795,-0.50421 -0.74817,-0.47168 -1.07348,-0.48794 -0.69938,-0.16265 -0.6506,-0.0813 h -0.58553 l -0.61806,-0.0163 -0.61806,0.13012 -0.53674,0.14638 -0.81323,0.35782 -0.8783,0.50421 -0.48795,0.40662 -0.61806,0.63432 -0.21144,0.35783 -0.21144,0.26024 -0.19518,0.48794 -0.21144,0.39035 -0.3253,0.79698 -0.0813,0.48794 -0.0976,0.68312 0.0976,0.553 0.0163,0.78071 0.24397,1.00842 0.21144,0.50421 z"
         id="path21" /><path
         style="fill:#ffffff;fill-opacity:1;stroke-width:0.264583"
         d="m 121.58782,148.06296 c 9.93681,0 9.95981,0.023 9.95981,0.023 l 0.092,29.99442 -10.09782,-0.023 z"
         id="path22" /></g><path
       style="display:inline;fill:#ffffff;fill-opacity:1;stroke-width:0.264583"
       d="m 71.822023,98.759499 10.165482,0.0325 0.01627,3.643301 1.106005,-1.2036 0.975887,-0.84577 1.626476,-1.073464 0.975886,-0.455407 1.431301,-0.42289 0.68312,-0.195167 0.71565,-0.0651 h 1.040945 0.748178 l 1.463831,0.19517 1.756595,0.455417 0.910826,0.455407 1.073475,0.715647 1.301181,1.008407 1.366242,1.52889 0.455414,0.58554 1.301183,-1.4313 0.97589,-0.84577 1.00841,-0.78071 1.46383,-0.813234 1.59395,-0.650587 1.69153,-0.292767 1.82166,-0.13011 1.69154,-0.0651 1.78913,0.2277 2.24453,0.585527 1.33372,0.780704 1.17106,0.780707 1.20359,1.2036 1.33371,2.212 1.00842,2.40719 0.52047,2.08189 0.19518,1.88672 0.16265,18.47677 -10.24681,-0.0651 0.0325,-17.14306 -0.35782,-2.04936 -0.74818,-1.65901 -0.61807,-0.71565 -1.4313,-0.65059 -1.82166,-0.19518 -1.30118,0.35783 -1.13853,0.68312 -1.17107,1.30118 -0.81323,1.65901 -0.29277,1.56141 -0.19518,17.01295 -10.181744,-0.0976 v -17.98883 l -0.260236,-1.10601 -0.227706,-0.7807 -0.618061,-1.13854 -1.040945,-0.8783 -0.943359,-0.42288 -1.040945,-0.16265 -0.845767,0.0325 -0.813239,0.29277 -1.040945,0.553 -1.236123,1.26865 -0.68312,1.106 -0.618061,1.46384 -0.390356,1.52888 -0.09759,16.19971 -10.214274,-0.0651 z"
       id="path20"
       inkscape:label="M" /><g
       id="g19"
       inkscape:label="A"
       style="display:inline;fill:#ffffff;fill-opacity:1"
       transform="translate(6.5091541,-47.245072)"><path
         id="path19"
         style="display:inline;fill:#ffffff;fill-opacity:1;stroke-width:0.264583"
         d="m 150.83947,96.807936 -2.86235,0.715718 -2.1146,1.07332 -1.95182,1.2361 -1.04076,0.943616 -1.17151,1.20354 -0.94309,1.2361 -0.48783,0.87798 -0.71572,1.13895 -0.293,0.68316 -0.5855,1.56115 -0.22737,0.71572 -0.13023,0.58549 -0.32556,1.62626 -0.0651,1.36632 0.0326,1.65933 0.16278,2.04897 0.5855,1.98438 0.74827,1.95182 1.30122,2.30993 1.30121,1.59371 1.2361,1.20354 1.30121,1.00821 1.46348,0.81338 0.81338,0.48783 1.72393,0.61805 1.1715,0.26045 1.07332,0.26045 1.65882,0.0326 2.01693,-0.0326 0.84594,-0.0326 1.49603,-0.293 1.464,-0.48783 2.01693,-0.8785 1.75648,-1.33377 0.61805,-0.68264 0.39016,-0.42323 -0.032,3.57859 10.14873,-0.0326 V 97.523654 l -10.08414,0.06511 -0.1297,3.545526 -1.85415,-1.854156 -2.7001,-1.561145 -2.4722,-0.715719 -2.08204,-0.195336 z m 5.30252,8.197434 2.34198,0.45527 2.14715,1.36632 1.75649,2.27687 0.78083,3.38325 -0.58601,2.73265 -1.2361,2.21175 -1.95131,1.56166 -2.08204,0.78084 -2.14715,0.19482 -2.47221,-0.84543 -1.75648,-1.30121 -0.91105,-1.17099 -0.84543,-1.62678 -0.26045,-1.69136 -0.0651,-2.21227 0.45527,-1.62626 0.97617,-1.75648 1.75648,-1.69189 1.95182,-0.84543 z" /></g><path
       style="display:inline;fill:#ffffff;fill-opacity:1;stroke-width:0.264583"
       d="m 108.31538,50.213805 10.25883,-0.023 -0.023,3.588279 0.98908,-0.989074 0.69006,-0.713057 0.85107,-0.529037 0.82806,-0.575047 0.78207,-0.391037 1.05808,-0.437037 0.71306,-0.18401 0.85107,-0.23002 0.78206,-0.138007 0.82807,-0.092 h 1.15009 l 1.03509,0.023 0.64405,0.13801 0.98908,0.161007 0.69005,0.16102 0.43704,0.18401 0.85107,0.299027 0.55204,0.25302 0.41404,0.276027 0.66705,0.391027 0.89707,0.713057 0.62105,0.575047 0.71306,0.920074 0.36803,0.713067 0.34503,0.644047 0.36803,0.713064 0.36803,0.874067 0.41403,1.449121 0.27602,1.748141 0.069,0.897064 0.18401,7.797635 v 11.730944 l -10.14382,-0.023 -0.092,-17.803438 -0.11501,-1.219094 -0.32203,-0.943084 -0.41403,-0.782057 -0.43704,-0.552047 -0.50604,-0.391037 -0.52904,-0.299017 -1.1961,-0.32203 h -1.12709 l -0.66705,-0.023 -0.89707,0.27602 -1.10409,0.644057 -0.78207,0.690054 -0.52904,0.690057 -0.75906,1.127094 -0.34503,1.012074 -0.25302,0.805064 -0.13801,0.667057 -0.11501,16.446327 -10.21283,-0.023 z"
       id="path17"
       inkscape:label="N" /><path
       style="display:inline;fill:#ffffff;fill-opacity:1;stroke-width:0.248751"
       d="m 68.315825,55.862904 8.880214,-6.107275 10.961523,12.093227 9.666484,-11.001198 9.111464,6.107276 -59.848949,67.786816 -8.95151,-6.02931 42.876707,-48.67336 z"
       id="path16"
       inkscape:label="Y" /><g
       id="g15"
       style="display:inline;fill:#ffffff;fill-opacity:1"
       inkscape:label="D"
       transform="translate(6.5091541,-47.245072)"><path
         id="path14"
         style="display:inline;fill:#ffffff;fill-opacity:1;stroke-width:0.264583"
         d="m 49.499924,76.412281 -0.04599,24.841899 -0.183968,-0.45992 -2.254126,-1.978178 -2.11615,-1.012342 -1.518254,-0.505912 -1.149801,-0.321944 -1.288293,-0.183968 -1.104325,-0.04599 -2.024166,0.137976 -1.057817,0.09198 -0.874365,0.183968 -1.978174,0.597896 -1.333769,0.736389 -1.564245,0.781865 -1.380278,1.15032 -1.103808,1.24178 -1.472262,1.70223 -1.472261,2.76003 -0.781865,2.07016 -0.413928,2.07016 -0.09198,2.76055 0.45992,2.99 1.057817,3.31246 1.380277,2.20814 1.978174,2.62206 3.266467,2.25412 2.852023,1.19631 1.610237,0.36794 3.035991,0.092 2.11615,-0.27595 2.070674,-0.36793 2.34611,-1.01235 2.070158,-1.51773 1.011825,-1.01234 -0.09198,3.54242 h 10.166821 l 0.04599,-51.018081 z M 41.40326,105.07255 h 1.702222 l 1.334285,0.32194 1.241785,0.5979 1.012341,0.59841 0.689881,0.64389 0.781864,1.15032 0.874365,1.51773 0.413929,1.51826 -0.09198,3.0365 -0.965833,1.93167 -1.150317,1.47226 -1.794206,1.38028 -2.300118,0.73587 -2.024166,-0.092 -2.11615,-0.73588 -1.472261,-1.05833 -0.919841,-1.05782 -1.196309,-2.62257 -0.183968,-2.39211 0.22996,-1.7942 0.690397,-1.47175 0.965832,-1.19631 0.873849,-1.01182 0.782381,-0.64441 1.195793,-0.59789 z" /></g><path
       style="display:inline;fill:#ffffff;fill-opacity:1;stroke-width:0.264583"
       d="m 202.60321,23.913514 c -7.30309,0.046 -7.29159,0.0575 -7.29159,0.0575 l 0.023,163.531726 -48.38442,0.023 -0.023,7.21108 h 55.65301 z"
       id="path6"
       inkscape:label="LR" /></g></svg>
